#!OML:ASF E:\Steps\Project 1\Capture day 1\Session 2\Subject.ASF
:FULLY-SPECIFIED
:DEGREES
372
root 12.4341 18.7299 10.8168 -150.993 6.08735 176.344
lowerback -15.8487 -2.75772 -9.63798
upperback 3.34255 -1.49889 -0.839944
thorax 12.9954 -1.35765 4.12275
lowerneck -4.50801 -0.542748 -0.0988016
upperneck 21.5775 0.14844 2.35994
head 7.34037 0.751032 0.859637
rclavicle 3.97569e-016 -6.36111e-015
rhumerus -34.8469 -14.5971 -78.1699
rradius 36.1409
rwrist -3.41335
rhand -8.65095 -414.187
rfingers 7.12502
rthumb 17.2824 -83.4387
lclavicle 3.97569e-016 -6.36111e-015
lhumerus -15.3863 -5.85184 78.6295
lradius 48.762
lwrist 4.99845
lhand -25.4907 -15.4126
lfingers 7.12502
lthumb 1.03763 14.5647
rfemur -53.5595 9.57936 12.6454
rtibia 51.7753
rfoot -22.9328 -11.8939
rtoes -29.0602
lfemur -45.1171 -7.70509 -20.8277
ltibia 19.7462
lfoot -3.26299 1.92252
ltoes -24.9246
373
root 12.4236 18.7445 10.7721 -151.047 6.04514 176.349
lowerback -16.0143 -2.76108 -9.47417
upperback 3.42583 -1.51454 -0.841391
thorax 13.1867 -1.36291 4.01874
lowerneck -3.86568 -0.342716 -0.135345
upperneck 20.6103 0.341412 2.51375
head 6.90769 0.81775 0.913243
rclavicle 2.70347e-014 1.15295e-014
rhumerus -34.7743 -14.8425 -78.2169
rradius 35.981
rwrist -3.1325
rhand -8.39275 -414.172
rfingers 7.12502
rthumb 17.5309 -83.4013
lclavicle 2.70347e-014 1.15295e-014
lhumerus -15.2696 -5.86844 78.6824
lradius 48.5982
lwrist 5.38545
lhand -24.7378 -15.0488
lfingers 7.12502
lthumb 1.76482 14.9237
rfemur -53.6438 9.80908 12.7902
rtibia 50.0174
rfoot -23.3571 -11.2728
rtoes -29.4427
lfemur -44.7758 -7.76275 -20.9027
ltibia 19.5453
lfoot -3.29563 1.88218
ltoes -24.261
374
root 12.4169 18.7561 10.727 -151.134 6.04201 176.335
lowerback -16.1504 -2.78517 -9.42819
upperback 3.54576 -1.54017 -0.806343
thorax 13.4124 -1.38644 4.01886
lowerneck -4.46637 -0.526708 -0.530229
upperneck 21.1841 0.0558178 2.9771
head 7.20432 0.705983 1.12021
rclavicle -1.31198e-014 1.31198e-014
rhumerus -34.6105 -15.0012 -78.2431
rradius 35.8031
rwrist -2.90796
rhand -8.12851 -413.935
rfingers 7.12502
rthumb 17.7852 -83.1416
lclavicle -1.31198e-014 1.31198e-014
lhumerus -15.2857 -6.13051 78.8146
lradius 47.9717
lwrist 4.24448
lhand -25.8534 -15.862
lfingers 7.12502
lthumb 0.687365 14.1167
rfemur -53.5714 10.0447 12.8878
rtibia 48.0408
rfoot -23.6783 -10.5558
rtoes -29.4607
lfemur -44.4091 -7.83288 -20.9599
ltibia 19.3427
lfoot -3.41509 1.89129
ltoes -23.6815
375
root 12.4099 18.7639 10.6801 -151.258 5.92566 176.311
lowerback -16.0207 -2.85181 -9.38055
upperback 3.50329 -1.67338 -0.718006
thorax 13.3049 -1.4459 4.05745
lowerneck -4.56959 -0.53364 -0.453783
upperneck 21.5573 0.123872 2.70607
head 7.3443 0.737684 1.03043
rclavicle -2.8625e-014 -7.95139e-015
rhumerus -34.7415 -14.8403 -78.2037
rradius 35.6508
rwrist -2.94444
rhand -8.37201 -413.51
rfingers 7.12502
rthumb 17.5509 -82.7377
lclavicle -2.8625e-014 -7.95139e-015
lhumerus -15.8111 -6.43085 79.0008
lradius 47.3436
lwrist 2.71362
lhand -27.447 -16.9199
lfingers 7.12502
lthumb -0.851823 13.0581
rfemur -53.2619 10.311 12.9552
rtibia 45.9479
rfoot -24.0674 -9.9526
rtoes -29.6598
lfemur -44.031 -7.90309 -21.0689
ltibia 19.2306
lfoot -3.5273 1.77881
ltoes -23.6549
376
root 12.3994 18.7752 10.6305 -151.433 5.76418 176.175
lowerback -15.6572 -2.93247 -9.43291
upperback 3.27725 -1.8442 -0.60716
thorax 12.8546 -1.51305 4.17802
lowerneck -4.41645 -0.631067 -0.375963
upperneck 22.0598 0.135735 2.29754
head 7.48291 0.743784 0.892683
rclavicle 2.82274e-014 -3.97569e-016
rhumerus -35.2779 -14.5795 -78.0288
rradius 35.6421
rwrist -2.78009
rhand -8.68691 -413.18
rfingers 7.12502
rthumb 17.2478 -82.4349
lclavicle 2.82274e-014 -3.97569e-016
lhumerus -16.462 -6.23316 79.166
lradius 48.0321
lwrist 5.17584
lhand -24.6651 -15.0337
lfingers 7.12502
lthumb 1.83505 14.9381
rfemur -52.8043 10.5268 12.9092
rtibia 43.8962
rfoot -24.3336 -9.43897
rtoes -30.5449
lfemur -43.5731 -7.93271 -21.4152
ltibia 19.0941
lfoot -3.55707 1.48744
ltoes -23.4815
